<svg width="32.000000" height="32.000000" viewBox="0 0 32 32" fill="none" xmlns="http://www.w3.org/2000/svg" xmlns:xlink="http://www.w3.org/1999/xlink">
	<desc>
			Created with Pixso.
	</desc>
	<defs/>
	<rect id="\Icon" width="32.000000" height="32.000000" fill="#FFFFFF" fill-opacity="0"/>
	<mask id="mask2_7233" mask-type="alpha" maskUnits="userSpaceOnUse" x="0.000000" y="0.000000" width="32.000000" height="32.000000">
		<path id="Mask" d="M18.7196 13.4039L20.5206 15.208C20.9896 15.677 21.1276 16.377 20.8726 16.991C20.6186 17.604 20.0266 18 19.3626 18L15.9996 18L15.9996 18.3409C15.9996 20.359 14.2056 22 11.9996 22C9.79361 22 7.9996 20.359 7.9996 18.3409L7.9996 18L4.6366 18C3.9726 18 3.37961 17.604 3.1246 16.99C2.87061 16.377 3.00961 15.678 3.47861 15.208L5.2796 13.4039L5.28061 8.72693C5.28061 6.79297 6.11859 4.94897 7.58261 3.66699C9.0376 2.39099 10.9776 1.80396 12.8996 2.05994C16.2176 2.4989 18.7196 5.45593 18.7196 8.93701L18.7196 13.4039ZM6.69461 14.818L5.51462 16L18.4856 16L17.3046 14.8169C16.9276 14.4399 16.7196 13.938 16.7196 13.4039L16.7196 8.93701C16.7196 6.45496 14.9646 4.35095 12.6376 4.04199C11.2606 3.86096 9.9386 4.26099 8.9006 5.1709C7.87061 6.073 7.28061 7.37 7.28061 8.72693L7.28061 13.4039C7.28061 13.938 7.0726 14.4399 6.69461 14.818ZM13.9996 18.3409C13.9996 19.24 13.0836 20 11.9996 20C10.9156 20 9.9996 19.24 9.9996 18.3409L9.9996 18L13.9996 18L13.9996 18.3409Z" clip-rule="evenodd" fill="#071435" fill-opacity="1.000000" fill-rule="evenodd"/>
	</mask>
	<g mask="url(#mask2_7233)">
		<rect id="Brand" width="32.000000" height="32.000000" fill="#FFFFFF" fill-opacity="0"/>
		<rect id="Danger" width="24.000000" height="24.000000" fill="#1551E5" fill-opacity="1.000000"/>
	</g>
</svg>
