<svg width="24.000000" height="24.000000" viewBox="0 0 24 24" fill="none" xmlns="http://www.w3.org/2000/svg" xmlns:xlink="http://www.w3.org/1999/xlink">
	<desc>
			Created with Pixso.
	</desc>
	<defs/>
	<rect id="\Icon" width="24.000000" height="24.000000" fill="#FFFFFF" fill-opacity="0"/>
	<mask id="mask2_7254" mask-type="alpha" maskUnits="userSpaceOnUse" x="0.000000" y="0.000000" width="24.000000" height="24.000000">
		<path id="Mask" d="M21.0828 6.948C20.7158 6.354 20.0797 6 19.3817 6L6.58176 6L5.96475 3.73706C5.84576 3.302 5.45074 3 4.99976 3L2.99976 3C2.44675 3 1.99976 3.448 1.99976 4C1.99976 4.552 2.44675 5 2.99976 5L4.23575 5L7.03476 15.2629C7.15375 15.698 7.54877 16 7.99976 16L16.9998 16C17.3788 16 17.7248 15.786 17.8947 15.447L21.1707 8.89404C21.4838 8.26904 21.4498 7.54199 21.0828 6.948ZM16.3817 14L8.76376 14L7.12677 8L19.3817 8L16.3817 14ZM7.49997 18C6.67197 18 5.99997 18.671 5.99997 19.5C5.99997 20.329 6.67197 21 7.49997 21C8.32797 21 8.99997 20.329 8.99997 19.5C8.99997 18.671 8.32797 18 7.49997 18ZM16 19.5C16 18.671 16.672 18 17.5 18C18.328 18 19 18.671 19 19.5C19 20.329 18.328 21 17.5 21C16.672 21 16 20.329 16 19.5Z" clip-rule="evenodd" fill="#071435" fill-opacity="1.000000" fill-rule="evenodd"/>
	</mask>
	<g mask="url(#mask2_7254)">
		<rect id="Brand" width="24.000000" height="24.000000" fill="#FFFFFF" fill-opacity="0"/>
		<rect id="Danger" width="24.000000" height="24.000000" fill="#1551E5" fill-opacity="1.000000"/>
	</g>
</svg>
