<svg width="21.000000" height="22.000000" viewBox="0 0 21 22" fill="none" xmlns="http://www.w3.org/2000/svg" xmlns:xlink="http://www.w3.org/1999/xlink">
	<desc>
			Created with Pixso.
	</desc>
	<defs/>
	<rect id="file" width="16.000000" height="16.000000" fill="#FFFFFF" fill-opacity="0"/>
	<path id="Mask" d="M14.2963 2.328L19.7403 8.328C19.9073 8.51199 20.0003 8.75101 20.0003 9L20.0003 19.5C20.0003 20.878 18.8533 22 17.4443 22L6.5553 22C5.1463 22 4.00031 20.878 4.00031 19.5L4.00031 4.5C4.00031 3.12201 5.1463 2 6.5553 2L13.5553 2C13.8383 2 14.1073 2.11899 14.2963 2.328ZM6.5553 20L17.4443 20C17.7503 20 18.0003 19.776 18.0003 19.5L18.0003 11L13.7143 11C12.2173 11 11.0003 9.72198 11.0003 8.14999L11.0003 4L6.5553 4C6.2493 4 6.00031 4.224 6.00031 4.5L6.00031 19.5C6.00031 19.776 6.2493 20 6.5553 20ZM17.6493 9L13.7143 9C13.3203 9 13.0003 8.61899 13.0003 8.14999L13.0003 4L13.1123 4L17.6493 9Z" clip-rule="evenodd" fill="#071435" fill-opacity="1.000000" fill-rule="evenodd"/>
</svg>
