<svg width="24.000000" height="24.000000" viewBox="0 0 24 24" fill="none" xmlns="http://www.w3.org/2000/svg" xmlns:xlink="http://www.w3.org/1999/xlink">
	<desc>
			Created with Pixso.
	</desc>
	<defs/>
	<path id="Mask" d="M10.7691 22.9398C10.8821 22.9808 10.9971 22.9998 11.1111 22.9998C11.4371 22.9998 11.7531 22.8398 11.9421 22.5558L19.8311 10.7558C20.0361 10.4488 20.0561 10.0548 19.8821 9.72882C19.7081 9.40381 19.3691 9.19983 19.0001 9.19983L13.1141 9.19983L13.8831 2.10779C13.9331 1.65082 13.6631 1.21777 13.2301 1.06079C12.7971 0.902771 12.3131 1.06079 12.0581 1.44482L4.16913 13.2438C3.96411 13.5508 3.94412 13.9458 4.1181 14.2718C4.29211 14.5968 4.6311 14.7998 5.00012 14.7998L10.8861 14.7998L10.1171 21.8928C10.0671 22.3498 10.3371 22.7818 10.7691 22.9398ZM6.87112 12.7998L12.0001 12.7998C12.2841 12.7998 12.5551 12.9208 12.7441 13.1318C12.9331 13.3428 13.0241 13.6248 12.9941 13.9068L12.5451 18.0568L17.1291 11.1998L12.0001 11.1998C11.7161 11.1998 11.4451 11.0788 11.2561 10.8678C11.0661 10.6568 10.9751 10.3748 11.0061 10.0928L11.4551 5.94379L6.87112 12.7998Z" clip-rule="evenodd" fill="#071435" fill-opacity="1.000000" fill-rule="evenodd"/>
</svg>
