<svg width="32.000000" height="32.000000" viewBox="0 0 32 32" fill="none" xmlns="http://www.w3.org/2000/svg" xmlns:xlink="http://www.w3.org/1999/xlink">
	<desc>
			Created with Pixso.
	</desc>
	<defs/>
	<rect id="\Icon" width="32.000000" height="32.000000" fill="#FFFFFF" fill-opacity="0"/>
	<mask id="mask2_7243" mask-type="alpha" maskUnits="userSpaceOnUse" x="0.000000" y="0.000000" width="32.000000" height="32.000000">
		<path id="Mask" d="M11.2927 20.7061C11.4797 20.895 11.7347 21 11.9997 21C12.2657 21 12.5197 20.895 12.7077 20.707L20.4757 12.926C22.5117 10.886 22.5117 7.56702 20.4747 5.52698C19.4917 4.54297 18.1787 4 16.7807 4C15.3807 4 14.0687 4.54297 13.0847 5.52795L11.9997 6.61401L10.9147 5.52698C9.93167 4.54297 8.61868 4 7.21967 4C5.82068 4 4.50867 4.54297 3.52469 5.52698C1.48868 7.56702 1.48868 10.886 3.52469 12.926L11.2927 20.7061ZM7.21967 6C6.35568 6 5.54568 6.33398 4.93967 6.94104C3.68167 8.20105 3.68167 10.252 4.94067 11.514L11.9997 18.585L19.0597 11.514C20.3187 10.252 20.3187 8.20105 19.0597 6.94104C17.8477 5.72595 15.7117 5.72803 14.4997 6.94104L12.7077 8.73596C12.3317 9.11304 11.6677 9.11304 11.2917 8.73596L9.49969 6.93994C8.89368 6.33398 8.08469 6 7.21967 6Z" clip-rule="evenodd" fill="#071435" fill-opacity="1.000000" fill-rule="evenodd"/>
	</mask>
	<g mask="url(#mask2_7243)">
		<rect id="Secondary" width="32.000000" height="32.000000" fill="#FFFFFF" fill-opacity="0"/>
		<rect id="Danger" width="24.000000" height="24.000000" fill="#77829E" fill-opacity="1.000000"/>
	</g>
</svg>
