<svg width="22.000000" height="22.000000" viewBox="0 0 22 22" fill="none" xmlns="http://www.w3.org/2000/svg" xmlns:xlink="http://www.w3.org/1999/xlink">
	<desc>
			Created with Pixso.
	</desc>
	<defs/>
	<rect id="info" width="16.000000" height="16.000000" fill="#FFFFFF" fill-opacity="0"/>
	<path id="Mask" d="M2 12C2 6.47699 6.47701 2 12 2C17.522 2 22 6.47699 22 12C22 17.523 17.522 22 12 22C6.47701 22 2 17.523 2 12ZM12 20C7.589 20 4 16.411 4 12C4 7.58899 7.589 4 12 4C16.411 4 20 7.58899 20 12C20 16.411 16.411 20 12 20ZM12 7C11.448 7 11 7.448 11 8C11 8.552 11.448 9 12 9C12.552 9 13 8.552 13 8C13 7.448 12.552 7 12 7ZM12 10C11.448 10 11 10.448 11 11L11 16C11 16.552 11.448 17 12 17C12.552 17 13 16.552 13 16L13 11C13 10.448 12.552 10 12 10Z" clip-rule="evenodd" fill="#071435" fill-opacity="1.000000" fill-rule="evenodd"/>
</svg>
