<svg width="24.000000" height="24.000000" viewBox="0 0 24 24" fill="none" xmlns="http://www.w3.org/2000/svg" xmlns:xlink="http://www.w3.org/1999/xlink">
	<desc>
			Created with Pixso.
	</desc>
	<defs/>
	<rect id="\Icon" width="24.000000" height="24.000000" fill="#FFFFFF" fill-opacity="0"/>
	<mask id="mask2_7048" mask-type="alpha" maskUnits="userSpaceOnUse" x="0.000000" y="0.000000" width="24.000000" height="24.000000">
		<path id="Mask" d="M3 7C3 6.448 3.448 6 4 6C4.552 6 5 6.448 5 7C5 7.552 4.552 8 4 8C3.448 8 3 7.552 3 7ZM7.93549 6L20.0645 6C20.5795 6 21.0005 6.42102 21.0005 6.93604L21.0005 7.06396C21.0005 7.57898 20.5795 8 20.0645 8L7.93549 8C7.42047 8 7.00049 7.57898 7.00049 7.06396L7.00049 6.93604C7.00049 6.42102 7.42047 6 7.93549 6ZM3 12C3 11.448 3.448 11 4 11C4.552 11 5 11.448 5 12C5 12.552 4.552 13 4 13C3.448 13 3 12.552 3 12ZM7.93549 11L20.0645 11C20.5795 11 21.0005 11.421 21.0005 11.936L21.0005 12.064C21.0005 12.579 20.5795 13 20.0645 13L7.93549 13C7.42047 13 7.00049 12.579 7.00049 12.064L7.00049 11.936C7.00049 11.421 7.42047 11 7.93549 11ZM4 16C3.448 16 3 16.448 3 17C3 17.552 3.448 18 4 18C4.552 18 5 17.552 5 17C5 16.448 4.552 16 4 16ZM20.0645 16L7.93549 16C7.42047 16 7.00049 16.421 7.00049 16.936L7.00049 17.064C7.00049 17.579 7.42047 18 7.93549 18L20.0645 18C20.5795 18 21.0005 17.579 21.0005 17.064L21.0005 16.936C21.0005 16.421 20.5795 16 20.0645 16Z" clip-rule="evenodd" fill="#071435" fill-opacity="1.000000" fill-rule="evenodd"/>
	</mask>
	<g mask="url(#mask2_7048)">
		<rect id="White" width="24.000000" height="24.000000" fill="#FFFFFF" fill-opacity="0"/>
		<rect id="Danger" width="24.000000" height="24.000000" fill="#FFFFFF" fill-opacity="1.000000"/>
	</g>
</svg>
