<svg width="144.000000" height="30.000000" viewBox="0 0 144 30" fill="none" xmlns="http://www.w3.org/2000/svg" xmlns:xlink="http://www.w3.org/1999/xlink">
	<desc>
			Created with Pixso.
	</desc>
	<defs/>
	<rect id="\Brand" width="144.000000" height="28.000000" fill="#FFFFFF" fill-opacity="0"/>
	<path id="Vector" d="M19.59 0C18.04 0 16.79 1.25 16.79 2.8L16.79 8.4C16.79 9.94 15.54 11.2 13.99 11.2C12.45 11.2 11.19 9.94 11.19 8.4L11.19 2.8C11.19 1.25 9.94 0 8.39 0L2.79 0C1.25 0 0 1.25 0 2.8L0 8.4C0 9.94 1.25 11.2 2.79 11.2L8.39 11.2C9.94 11.2 11.19 12.45 11.19 14C11.19 15.54 9.94 16.79 8.39 16.79L2.79 16.79C1.25 16.79 0 18.05 0 19.6L0 25.2C0 26.74 1.25 28 2.79 28L8.39 28C9.94 28 11.19 26.74 11.19 25.2L11.19 19.6C11.19 18.05 12.45 16.79 13.99 16.79C15.54 16.79 16.79 18.05 16.79 19.6L16.79 25.2C16.79 26.74 18.04 28 19.59 28L25.19 28C26.74 28 27.99 26.74 27.99 25.2L27.99 19.6C27.99 18.05 26.74 16.79 25.19 16.79L19.59 16.79C18.04 16.79 16.79 15.54 16.79 14C16.79 12.45 18.04 11.2 19.59 11.2L25.19 11.2C26.74 11.2 27.99 9.94 27.99 8.4L27.99 2.8C27.99 1.25 26.74 0 25.19 0L19.59 0Z" fill="#1551E5" fill-opacity="1.000000" fill-rule="evenodd"/>
	<path id="Vector" d="M52.96 10.87C53.33 10.76 53.54 10.35 53.37 10C51.92 7.02 48.91 5.11 45.31 5.11C42.75 5.11 40.64 5.95 38.92 7.66C37.23 9.34 36.39 11.44 36.39 14C36.39 16.55 37.23 18.65 38.92 20.36C40.64 22.04 42.75 22.88 45.31 22.88C48.91 22.88 51.92 20.97 53.37 17.99C53.54 17.64 53.33 17.23 52.96 17.12L50.16 16.29C49.84 16.2 49.5 16.36 49.33 16.65C48.5 18.02 47.02 18.84 45.31 18.84C43.98 18.84 42.85 18.39 41.94 17.45C41.03 16.52 40.57 15.39 40.57 14C40.57 12.61 41.03 11.48 41.94 10.54C42.85 9.6 43.98 9.15 45.31 9.15C47.02 9.15 48.5 9.97 49.33 11.34C49.5 11.63 49.84 11.79 50.16 11.7L52.96 10.87ZM58.74 20.36C60.46 22.04 62.57 22.88 65.14 22.88C67.7 22.88 69.81 22.04 71.53 20.36C73.25 18.65 74.1 16.55 74.1 14C74.1 11.44 73.25 9.34 71.53 7.66C69.81 5.95 67.7 5.11 65.14 5.11C62.57 5.11 60.46 5.95 58.74 7.66C57.06 9.34 56.21 11.44 56.21 14C56.21 16.55 57.06 18.65 58.74 20.36ZM80.93 21.73C80.93 22.1 80.64 22.4 80.27 22.4L77.54 22.4C77.18 22.4 76.88 22.1 76.88 21.73L76.88 6.26C76.88 5.89 77.18 5.59 77.54 5.59L80.27 5.59C80.64 5.59 80.93 5.89 80.93 6.26C80.93 6.62 81.42 6.8 81.68 6.55C82.75 5.58 84.09 5.11 85.67 5.11C87.62 5.11 89.18 5.73 90.34 7C90.68 7.38 91.31 7.38 91.65 7.01C92.82 5.73 94.41 5.11 96.38 5.11C98.33 5.11 99.92 5.69 101.19 6.89C102.45 8.08 103.1 9.57 103.1 11.35L103.1 21.73C103.1 22.1 102.8 22.4 102.44 22.4L99.75 22.4C99.38 22.4 99.08 22.1 99.08 21.73L99.08 12.51C99.08 10.47 97.55 8.95 95.57 8.95C93.59 8.95 92.03 10.47 92.03 12.51L92.03 21.73C92.03 22.1 91.74 22.4 91.37 22.4L88.65 22.4C88.28 22.4 87.98 22.1 87.98 21.73L87.98 12.51C87.98 10.47 86.45 8.95 84.47 8.95C82.49 8.95 80.93 10.47 80.93 12.51L80.93 21.73ZM109.27 29.67C109.64 29.67 109.94 29.37 109.94 29L109.94 22.53C109.94 21.95 110.63 21.6 111.15 21.89C112.33 22.55 113.62 22.88 115.03 22.88C117.37 22.88 119.32 22.04 120.91 20.36C122.5 18.65 123.28 16.55 123.28 14C123.28 11.44 122.5 9.34 120.91 7.66C119.32 5.95 117.37 5.11 115.03 5.11C113.34 5.11 111.83 5.59 110.47 6.53C110.25 6.68 109.94 6.53 109.94 6.26C109.94 5.89 109.64 5.59 109.27 5.59L106.55 5.59C106.18 5.59 105.88 5.89 105.88 6.26L105.88 29C105.88 29.37 106.18 29.67 106.55 29.67L109.27 29.67ZM134.98 22.88C132.42 22.88 130.31 22.04 128.59 20.36C126.9 18.65 126.06 16.55 126.06 14C126.06 11.44 126.9 9.34 128.59 7.66C130.31 5.95 132.42 5.11 134.98 5.11C137.55 5.11 139.66 5.95 141.38 7.66C143.1 9.34 143.94 11.44 143.94 14C143.94 16.55 143.1 18.65 141.38 20.36C139.66 22.04 137.55 22.88 134.98 22.88ZM61.76 10.54C62.67 9.6 63.81 9.15 65.14 9.15C66.47 9.15 67.6 9.6 68.51 10.54C69.42 11.48 69.88 12.61 69.88 14C69.88 15.39 69.42 16.52 68.51 17.45C67.6 18.39 66.47 18.84 65.14 18.84C63.81 18.84 62.67 18.39 61.76 17.45C60.85 16.52 60.4 15.39 60.4 14C60.4 12.61 60.85 11.48 61.76 10.54ZM117.73 10.54C118.6 11.48 119.06 12.61 119.06 14C119.06 15.39 118.6 16.52 117.73 17.45C116.85 18.39 115.78 18.84 114.51 18.84C113.25 18.84 112.18 18.39 111.3 17.45C110.43 16.52 110 15.39 110 14C110 12.61 110.43 11.48 111.3 10.54C112.18 9.6 113.25 9.15 114.51 9.15C115.78 9.15 116.85 9.6 117.73 10.54ZM134.98 9.15C133.65 9.15 132.52 9.6 131.61 10.54C130.7 11.48 130.24 12.61 130.24 14C130.24 15.39 130.7 16.52 131.61 17.45C132.52 18.39 133.65 18.84 134.98 18.84C136.31 18.84 137.45 18.39 138.36 17.45C139.27 16.52 139.72 15.39 139.72 14C139.72 12.61 139.27 11.48 138.36 10.54C137.45 9.6 136.31 9.15 134.98 9.15Z" fill="#001AFF" fill-opacity="1.000000" fill-rule="evenodd"/>
</svg>
