<svg width="23.000000" height="21.000000" viewBox="0 0 23 21" fill="none" xmlns="http://www.w3.org/2000/svg" xmlns:xlink="http://www.w3.org/1999/xlink">
	<desc>
			Created with Pixso.
	</desc>
	<defs/>
	<rect id="message-circle" width="16.000000" height="16.000000" fill="#FFFFFF" fill-opacity="0"/>
	<path id="Mask" d="M10.3976 1.12415C13.6266 0.625183 16.7866 1.64417 19.0716 3.92816C21.3566 6.2132 22.3776 9.37518 21.8756 12.6022C21.2396 16.6792 17.9556 20.0591 13.8876 20.8221C11.9316 21.1891 9.93759 20.9781 8.12259 20.2112C7.96359 20.1451 7.72559 20.0762 7.47961 20.1232L3.19659 20.9802C3.13062 20.9932 3.06561 20.9991 3.00061 20.9991C2.73761 20.9991 2.4826 20.8962 2.29361 20.7062C2.05661 20.4702 1.95361 20.1312 2.01959 19.8032L2.87759 15.5152C2.91559 15.3221 2.88559 15.1072 2.7886 14.8762C2.02161 13.0632 1.8096 11.0692 2.17761 9.11115C2.94061 5.04419 6.32059 1.76019 10.3976 1.12415ZM19.8986 12.2942C19.3916 15.5482 16.7686 18.2472 13.5196 18.8562C11.9506 19.1522 10.3526 18.9832 8.90259 18.3691C8.49161 18.1952 8.06659 18.1072 7.6496 18.1072C7.45959 18.1072 7.27161 18.1252 7.08661 18.1622L4.2746 18.7242L4.83759 15.9072C4.9556 15.3221 4.88361 14.6962 4.63062 14.0972C4.0166 12.6472 3.8486 11.0502 4.14359 9.48016C4.75259 6.2312 7.45059 3.60815 10.7056 3.1012C13.2956 2.69818 15.8286 3.51416 17.6566 5.34216C19.4856 7.17114 20.3026 9.7052 19.8986 12.2942ZM8.00021 9.99927C7.44821 9.99927 7.00021 10.4473 7.00021 10.9993C7.00021 11.5513 7.44821 11.9993 8.00021 11.9993C8.55219 11.9993 9.00021 11.5513 9.00021 10.9993C9.00021 10.4473 8.55219 9.99927 8.00021 9.99927ZM11.0002 10.9993C11.0002 10.4473 11.4482 9.99927 12.0002 9.99927C12.5522 9.99927 13.0002 10.4473 13.0002 10.9993C13.0002 11.5513 12.5522 11.9993 12.0002 11.9993C11.4482 11.9993 11.0002 11.5513 11.0002 10.9993ZM15.0002 10.9993C15.0002 10.4473 15.4482 9.99927 16.0002 9.99927C16.5522 9.99927 17.0002 10.4473 17.0002 10.9993C17.0002 11.5513 16.5522 11.9993 16.0002 11.9993C15.4482 11.9993 15.0002 11.5513 15.0002 10.9993Z" clip-rule="evenodd" fill="#071435" fill-opacity="1.000000" fill-rule="evenodd"/>
</svg>
