<svg width="20.000000" height="21.000000" viewBox="0 0 20 21" fill="none" xmlns="http://www.w3.org/2000/svg" xmlns:xlink="http://www.w3.org/1999/xlink">
	<desc>
			Created with Pixso.
	</desc>
	<defs/>
	<rect id="\Icon" width="16.000000" height="16.000000" fill="#FFFFFF" fill-opacity="0"/>
	<mask id="mask13_7246" mask-type="alpha" maskUnits="userSpaceOnUse" x="0.000000" y="0.000000" width="16.000000" height="16.000000">
		<rect id="percent" width="16.000000" height="16.000000" fill="#FFFFFF" fill-opacity="0"/>
		<path id="Mask" d="M18.4827 4.26068C18.8298 3.91272 19.3928 3.91272 19.7397 4.26068C20.0867 4.60767 20.0867 5.16968 19.7397 5.5177L5.51776 19.7397C5.16974 20.0867 4.60773 20.0867 4.26074 19.7397C4.08673 19.5667 3.99976 19.3387 3.99976 19.1117C3.99976 18.8837 4.08673 18.6567 4.26074 18.4827L18.4827 4.26068ZM11.5001 7.5C11.5001 9.42999 9.93005 11 8.00006 11C6.07007 11 4.50006 9.42999 4.50006 7.5C4.50006 5.57001 6.07007 4 8.00006 4C9.93005 4 11.5001 5.57001 11.5001 7.5ZM8.00006 6C8.82703 6 9.50006 6.67297 9.50006 7.5C9.50006 8.32697 8.82703 9 8.00006 9C7.17303 9 6.50006 8.32697 6.50006 7.5C6.50006 6.67297 7.17303 6 8.00006 6ZM12.5001 17.5C12.5001 15.57 14.0701 14 16.0001 14C17.9301 14 19.5001 15.57 19.5001 17.5C19.5001 19.43 17.9301 21 16.0001 21C14.0701 21 12.5001 19.43 12.5001 17.5ZM16.0001 19C15.173 19 14.5001 18.327 14.5001 17.5C14.5001 16.673 15.173 16 16.0001 16C16.827 16 17.5001 16.673 17.5001 17.5C17.5001 18.327 16.827 19 16.0001 19Z" clip-rule="evenodd" fill="#071435" fill-opacity="1.000000" fill-rule="evenodd"/>
	</mask>
	<g mask="url(#mask13_7246)">
		<rect id="Black" width="16.000000" height="16.000000" fill="#FFFFFF" fill-opacity="0"/>
		<rect id="Danger" width="16.000000" height="16.000000" fill="#1551E5" fill-opacity="1.000000"/>
	</g>
</svg>
