<svg width="24.000000" height="24.000000" viewBox="0 0 24 24" fill="none" xmlns="http://www.w3.org/2000/svg" xmlns:xlink="http://www.w3.org/1999/xlink">
	<desc>
			Created with Pixso.
	</desc>
	<defs/>
	<path id="Mask" d="M10.582 20.4686C10.937 20.8216 11.401 20.9986 11.866 20.9986C12.332 20.9986 12.797 20.8216 13.151 20.4676L20.468 13.1516C20.811 12.8086 21 12.3526 21 11.8666C21 11.3806 20.811 10.9246 20.468 10.5816L14.051 4.16461C13.886 3.99963 13.669 3.89758 13.437 3.87659L4.09299 3.00458C3.79599 2.97461 3.504 3.0816 3.293 3.2926C3.082 3.5036 2.97699 3.79663 3.004 4.09259L3.87598 13.4366C3.89798 13.6686 4 13.8866 4.16498 14.0506L10.582 20.4686ZM5.83398 12.8916L11.866 18.9246L18.924 11.8666L12.892 5.83362L5.10699 5.1076L5.83398 12.8916ZM10.5605 10.5605C11.1465 9.97552 11.1465 9.02448 10.5605 8.43951C9.97449 7.85352 9.02548 7.85352 8.43948 8.43951C7.85349 9.02448 7.85349 9.97552 8.43948 10.5605C9.02548 11.1465 9.97449 11.1465 10.5605 10.5605Z" clip-rule="evenodd" fill="#071435" fill-opacity="1.000000" fill-rule="evenodd"/>
</svg>
