<svg width="24.000000" height="24.000000" viewBox="0 0 24 24" fill="none" xmlns="http://www.w3.org/2000/svg" xmlns:xlink="http://www.w3.org/1999/xlink">
	<desc>
			Created with Pixso.
	</desc>
	<defs/>
	<path id="Mask" d="M17.0985 20.842C17.2436 20.918 17.4026 20.955 17.5616 20.955C17.7696 20.955 17.9766 20.891 18.1495 20.763C18.4576 20.539 18.6105 20.16 18.5465 19.785L17.5746 14.157L21.6945 10.172C21.9695 9.90698 22.0675 9.50897 21.9506 9.146C21.8345 8.78302 21.5205 8.51898 21.1436 8.46399L15.4426 7.63599L12.8956 2.51001C12.5576 1.83002 11.4415 1.83002 11.1036 2.51001L8.55652 7.63599L2.85553 8.46399C2.47858 8.51898 2.16455 8.78302 2.04852 9.146C1.93152 9.50897 2.02954 9.90698 2.30457 10.172L6.42456 14.157L5.45258 19.785C5.38855 20.16 5.54156 20.539 5.84955 20.763C6.15454 20.987 6.56256 21.018 6.90057 20.842L11.9996 18.178L17.0985 20.842ZM11.9996 16.05C12.1586 16.05 12.3176 16.088 12.4625 16.163L16.2315 18.133L15.5145 13.976C15.4575 13.65 15.5665 13.318 15.8046 13.087L18.8405 10.151L14.6376 9.539C14.3126 9.492 14.0316 9.289 13.8856 8.995L11.9996 5.20099L10.1135 8.995C9.96753 9.289 9.68652 9.492 9.36157 9.539L5.15857 10.151L8.19452 13.087C8.43256 13.318 8.54156 13.65 8.48456 13.976L7.76752 18.133L11.5366 16.163C11.6815 16.088 11.8406 16.05 11.9996 16.05Z" clip-rule="evenodd" fill="#071435" fill-opacity="1.000000" fill-rule="evenodd"/>
</svg>
