<svg width="24.000000" height="24.000000" viewBox="0 0 24 24" fill="none" xmlns="http://www.w3.org/2000/svg" xmlns:xlink="http://www.w3.org/1999/xlink">
	<desc>
			Created with Pixso.
	</desc>
	<defs/>
	<path id="Mask" d="M12 6C12.552 6 13 5.55298 13 5L13 3C13 2.44702 12.552 2 12 2C11.448 2 11 2.44702 11 3L11 5C11 5.55298 11.448 6 12 6ZM6.2207 5.02832C5.8237 4.64532 5.1907 4.65729 4.8067 5.05328C4.61899 5.24738 4.52567 5.49805 4.52567 5.74835C4.52567 6.01013 4.62775 6.27148 4.83069 6.46729L6.26971 7.8573C6.46469 8.04529 6.71469 8.13733 6.96469 8.13733C7.22668 8.13733 7.4877 8.03528 7.68369 7.83228C7.8714 7.63824 7.96472 7.38757 7.96472 7.13727C7.96472 6.87549 7.86264 6.61407 7.6597 6.41827L6.2207 5.02832ZM17.0352 8.1377C17.2852 8.1377 17.5352 8.04468 17.7302 7.85773L19.1692 6.46771C19.3721 6.27142 19.4742 6.00977 19.4742 5.74799C19.4742 5.49768 19.3809 5.24725 19.1932 5.05371C18.8102 4.65771 18.1782 4.64569 17.7792 5.02869L16.3402 6.41772C16.1373 6.61401 16.0352 6.87561 16.0352 7.13739C16.0352 7.3877 16.1285 7.63812 16.3162 7.83173C16.5122 8.03473 16.7732 8.1377 17.0352 8.1377ZM12 8C9.79401 8 8 9.79401 8 12C8 14.206 9.79401 16 12 16C14.206 16 16 14.206 16 12C16 9.79401 14.206 8 12 8ZM12 14C10.897 14 10 13.103 10 12C10 10.897 10.897 10 12 10C13.103 10 14 10.897 14 12C14 13.103 13.103 14 12 14ZM6 12C6 11.447 5.552 11 5 11L3 11C2.448 11 2 11.447 2 12C2 12.553 2.448 13 3 13L5 13C5.552 13 6 12.553 6 12ZM21 11L19 11C18.448 11 18 11.447 18 12C18 12.553 18.448 13 19 13L21 13C21.552 13 22 12.553 22 12C22 11.447 21.552 11 21 11ZM6.26999 16.1426L4.83099 17.5326C4.62805 17.7284 4.52597 17.9897 4.52597 18.2516C4.52597 18.5019 4.61929 18.7526 4.80701 18.9466C5.00299 19.1496 5.26401 19.2516 5.526 19.2516C5.776 19.2516 6.026 19.1596 6.22101 18.9716L7.66 17.5816C7.86295 17.3858 7.96503 17.1245 7.96503 16.8627C7.96503 16.6123 7.8717 16.3616 7.68399 16.1676C7.30099 15.7716 6.668 15.7596 6.26999 16.1426ZM17.73 16.1426C17.333 15.7596 16.7 15.7716 16.316 16.1676C16.1283 16.3616 16.035 16.6123 16.035 16.8627C16.035 17.1245 16.1371 17.3858 16.34 17.5816L17.779 18.9716C17.974 19.1596 18.224 19.2516 18.474 19.2516C18.736 19.2516 18.997 19.1496 19.193 18.9466C19.3807 18.7526 19.474 18.5019 19.474 18.2516C19.474 17.9897 19.3719 17.7284 19.169 17.5326L17.73 16.1426ZM12 18C11.448 18 11 18.447 11 19L11 21C11 21.553 11.448 22 12 22C12.552 22 13 21.553 13 21L13 19C13 18.447 12.552 18 12 18Z" clip-rule="evenodd" fill="#071435" fill-opacity="1.000000" fill-rule="evenodd"/>
</svg>
