<svg width="22.000000" height="19.000000" viewBox="0 0 22 19" fill="none" xmlns="http://www.w3.org/2000/svg" xmlns:xlink="http://www.w3.org/1999/xlink">
	<desc>
			Created with Pixso.
	</desc>
	<defs/>
	<rect id="video" width="16.000000" height="16.000000" fill="#FFFFFF" fill-opacity="0"/>
	<path id="Mask" d="M19.161 7.45151C19.66 6.99152 20.386 6.8725 21.012 7.14551C21.621 7.4115 22 7.9805 22 8.62952L22 15.3705C22 16.0195 21.621 16.5885 21.012 16.8545C20.788 16.9525 20.553 16.9995 20.319 16.9995C19.896 16.9995 19.481 16.8445 19.161 16.5475L17 14.5485L17 15.9995C17 17.6545 15.654 18.9995 14 18.9995L5 18.9995C3.34601 18.9995 2 17.6545 2 15.9995L2 7.99951C2 6.34552 3.34601 4.99951 5 4.99951L14 4.99951C15.654 4.99951 17 6.34552 17 7.99951L17 9.45151L19.161 7.45151ZM15 15.9995C15 16.5515 14.552 16.9995 14 16.9995L5 16.9995C4.448 16.9995 4 16.5515 4 15.9995L4 7.99951C4 7.44852 4.448 6.99951 5 6.99951L14 6.99951C14.552 6.99951 15 7.44852 15 7.99951L15 15.9995ZM20 14.5995L17.191 11.9995L20 9.40051L20 14.5995Z" clip-rule="evenodd" fill="#071435" fill-opacity="1.000000" fill-rule="evenodd"/>
</svg>
